<svg width="191" height="159" viewBox="0 0 191 159" fill="none" xmlns="http://www.w3.org/2000/svg">
<path fill-rule="evenodd" clip-rule="evenodd" d="M187.899 75.4684C178.542 68.1159 159.158 72.572 138.66 86.6087L129.079 93.07C129.525 89.9508 131.53 69.0071 132.867 59.8721C135.317 43.8301 112.369 43.8312 87.1915 60.096L70.9268 70.5663C71.3724 67.8926 72.932 54.5256 76.2741 41.8258C80.953 23.7786 61.7918 16.8718 37.2834 27.7893C28.3712 31.7998 20.1273 35.5872 18.7904 36.2556C17.008 36.924 15.894 32.0219 15.4483 21.3272C14.3343 2.38882 12.3291 -2.7357 -6.38655 1.27479C-25.9934 5.50809 -71 34.249 -71 42.7156C-71 55.1927 -45.6002 57.8673 -30.4495 46.9498L-19.5318 39.1516C-19.9774 41.6025 -21.9829 54.748 -24.8794 60.3181C-32.0091 74.3548 -6.38676 79.9245 16.785 69.4522C37.9514 59.8716 37.506 58.9813 31.9359 81.4842C28.5938 95.0753 29.0397 130.949 81.8442 94.6319C86.9687 91.067 91.4249 88.8367 91.4249 89.728C91.4249 90.842 89.8652 98.8652 88.0828 108C82.067 136.965 97.8862 140.753 133.312 119.14C141.11 114.462 147.795 110.449 148.463 110.449C149.131 110.449 148.909 119.138 148.017 129.387C146.012 156.124 159.158 166.818 176.759 152.782C186.117 145.206 195.252 81.2614 187.899 75.4684Z" fill="#FF9533"/>
</svg>
