<svg width="313" height="188" viewBox="0 0 313 188" fill="none" xmlns="http://www.w3.org/2000/svg">
<path d="M167.824 184.739C164.328 188.581 152.091 191.144 145.098 179.801C142.039 174.678 137.96 166.445 131.696 153.273C124.267 137.722 117.274 123.817 116.255 122.353C114.361 119.609 90.0331 138.088 73.7174 154.736C42.8342 186.204 45.8934 141.928 45.8934 141.746V73.6883C-4.36468 75.3349 -6.98684 77.8962 8.01774 47.5263L21.4214 20.2665C30.8903 1.05661 61.335 -5.52961 43.5626 30.6948C30.3061 57.9545 31.9085 55.3932 29.5777 60.5158C32.0542 59.967 42.8342 57.5886 51.4291 55.3932C70.2212 50.4535 70.2212 62.7113 70.5126 72.5906C70.8039 82.2871 70.6583 97.1061 70.6583 130.952C123.684 88.8733 124.267 82.1041 149.032 136.257C157.627 154.918 157.772 155.285 159.812 151.077C191.57 85.2143 191.861 85.0313 227.988 107.534C239.351 114.67 248.966 120.158 249.111 119.975C249.257 119.61 247.946 107.9 246.052 93.813C240.517 52.6489 240.225 53.5637 262.805 55.0273C271.254 55.5761 279.266 56.6739 280.723 57.2227C282.326 57.9545 278.246 48.441 270.671 33.2561C254.793 -15.409 279.703 -1.5047 289.318 17.5222C315.831 70.2122 327.922 81.1893 279.266 71.8588C271.109 70.3952 267.175 70.2123 267.321 71.4929C267.321 72.5906 269.652 87.0438 272.419 103.509C276.935 130.587 288.007 166.262 227.843 127.66C215.023 119.427 203.369 113.572 203.369 113.572C203.369 113.572 173.215 178.702 167.824 184.739Z" fill="#FF9533"/>
<path d="M167.824 184.739C164.328 188.581 152.091 191.144 145.098 179.801C142.039 174.678 137.96 166.445 131.696 153.273C124.267 137.722 117.274 123.817 116.255 122.353C114.361 119.609 90.0331 138.088 73.7174 154.736C42.8342 186.204 45.8934 141.928 45.8934 141.746V73.6883C-4.36468 75.3349 -6.98684 77.8962 8.01774 47.5263L21.4214 20.2665C30.8903 1.05661 61.335 -5.52961 43.5626 30.6948C30.3061 57.9545 31.9085 55.3932 29.5777 60.5158C32.0542 59.967 42.8342 57.5886 51.4291 55.3932C70.2212 50.4535 70.2212 62.7113 70.5126 72.5906C70.8039 82.2871 70.6583 97.1061 70.6583 130.952C123.684 88.8733 124.267 82.1041 149.032 136.257C157.627 154.918 157.772 155.285 159.812 151.077C191.57 85.2143 191.861 85.0313 227.988 107.534C239.351 114.67 248.966 120.158 249.111 119.975C249.257 119.61 247.946 107.9 246.052 93.813C240.517 52.6489 240.225 53.5637 262.805 55.0273C271.254 55.5761 279.266 56.6739 280.723 57.2227C282.326 57.9545 278.246 48.441 270.671 33.2561C254.793 -15.409 279.703 -1.5047 289.318 17.5222C315.831 70.2122 327.922 81.1893 279.266 71.8588C271.109 70.3952 267.175 70.2123 267.321 71.4929C267.321 72.5906 269.652 87.0438 272.419 103.509C276.935 130.587 288.007 166.262 227.843 127.66C215.023 119.427 203.369 113.572 203.369 113.572C203.369 113.572 173.215 178.702 167.824 184.739Z" fill="#FF9533"/>
<path d="M179.042 61.4307C173.797 74.9691 169.865 87.9586 158.356 84.6655C151.947 82.836 145.535 74.9672 138.397 60.3311C128.054 39.2917 129.657 40.2083 115.526 47.8923C91.4898 60.8818 82.7493 57.2228 84.2061 33.988C86.8282 -10.1033 115.236 -6.44429 111.012 18.803C108.535 34.3539 107.368 33.2561 120.188 27.5847C139.126 19.3518 145.535 21.3643 153.839 38.7447C159.812 51.1854 158.938 51.1854 165.93 36.9152C175.108 17.8882 180.207 20.6325 196.523 26.1211L195.94 18.9859C194.483 -0.22396 209.925 5.81344 220.559 28.6824C230.174 49.5388 220.996 55.7592 196.523 44.965C191.278 42.5867 186.908 41.1231 186.617 41.489C186.471 42.2208 183.121 51.0024 179.042 61.4307Z" fill="#FF9533"/>
</svg>
