<svg width="402" height="338" viewBox="0 0 402 338" fill="none" xmlns="http://www.w3.org/2000/svg">
<path fill-rule="evenodd" clip-rule="evenodd" d="M399.807 294.741C390.736 214.238 360.885 186.665 262.685 168.54C204.25 157.742 188.745 144.341 173.556 91.7977C157.629 36.3621 142.229 17.8507 102.358 6.18505C82.6334 0.400447 40.442 -1.81621 17.8697 1.65455C7.00544 3.29352 1.4151 6.18524 0.465771 10.7165C-1.1164 18.5257 1.52089 72.7079 5.52906 113.682C7.11124 129.686 7.53273 130.169 20.4011 131.422C52.2555 134.507 64.1748 142.606 68.183 164.202C69.1323 169.215 73.1405 189.654 73.4569 192.064C83.2664 257.334 100.038 270.542 196.234 288.956C240.113 297.344 254.035 307.949 256.672 335.233C256.988 338.607 256.356 338.607 273.866 336.775C280.3 336.101 308.99 335.233 337.68 334.751C408.35 333.594 404.448 336.197 399.807 294.741ZM288.949 322.989C263.001 324.628 265.322 324.916 264.478 319.517C262.158 303.802 255.407 295.898 237.265 287.124C225.768 281.533 205.727 276.712 179.463 273.048C113.539 263.793 94.2361 244.415 81.8952 175.674C77.2541 149.547 75.3556 142.991 70.9255 137.4C59.0065 122.36 38.8599 123.13 18.3971 122.359C18.3971 122.359 16.7094 99.0275 16.2875 95.3639C15.5492 87.5547 14.2838 87.8449 33.4808 91.4121C61.1161 96.5218 74.4061 102.885 86.0087 116.671C97.9281 130.844 101.514 141.545 110.48 190.618C119.235 238.437 143.178 253.188 226.928 262.443C283.148 268.71 301.712 281.34 306.564 316.529L307.301 321.832L288.949 322.989ZM315.952 321.543C314.897 317.397 312.471 308.913 311.732 304.864C304.665 267.842 285.889 255.984 222.919 248.946C165.117 242.487 155.096 239.015 137.481 219.251C128.832 209.513 123.876 200.354 121.872 190.328C118.813 175.384 122.821 198.62 110.269 139.521C101.409 97.9679 65.4405 72.804 20.6122 77.046L15.0221 77.6254C13.018 65.767 12.9122 42.0499 10.4862 16.6941C10.5917 16.6941 57.846 14.5731 77.5705 16.6941C125.141 21.9003 153.832 50.5344 166.383 105.295C177.459 153.789 201.824 175 256.884 183.869C321.331 194.282 350.759 208.839 371.749 240.655C379.871 252.899 389.892 288.088 391.052 308.238L391.684 319.035L315.952 321.543Z" fill="#FF9533"/>
</svg>
