<svg width="111" height="20" viewBox="0 0 111 20" fill="none" xmlns="http://www.w3.org/2000/svg">
<path d="M17.7363 6.89649L12.7774 6.17579L10.5606 1.68165C10.5 1.5586 10.4004 1.45899 10.2774 1.39844C9.96876 1.2461 9.59376 1.37305 9.43946 1.68165L7.22266 6.17579L2.26368 6.89649C2.12696 6.91603 2.00196 6.98048 1.90626 7.07814C1.79056 7.19705 1.7268 7.35704 1.729 7.52294C1.7312 7.68885 1.79917 7.84709 1.91797 7.9629L5.50587 11.461L4.65821 16.4004C4.63833 16.5153 4.65105 16.6335 4.69491 16.7415C4.73878 16.8496 4.81204 16.9432 4.90639 17.0117C5.00074 17.0802 5.1124 17.1209 5.22872 17.1292C5.34503 17.1375 5.46134 17.1131 5.56446 17.0586L10 14.7266L14.4356 17.0586C14.5567 17.1231 14.6973 17.1445 14.832 17.1211C15.1719 17.0625 15.4004 16.7403 15.3418 16.4004L14.4942 11.461L18.082 7.9629C18.1797 7.8672 18.2442 7.7422 18.2637 7.60548C18.3164 7.26368 18.0781 6.94728 17.7363 6.89649Z" fill="#FF9533"/>
<path d="M39.8495 6.89649L35.1385 6.17579L33.0325 1.68165C32.975 1.5586 32.8804 1.45899 32.7635 1.39844C32.4703 1.2461 32.1141 1.37305 31.9675 1.68165L29.8616 6.17579L25.1505 6.89649C25.0206 6.91603 24.9019 6.98048 24.811 7.07814C24.701 7.19705 24.6405 7.35704 24.6426 7.52294C24.6447 7.68885 24.7092 7.84709 24.8221 7.9629L28.2306 11.461L27.4253 16.4004C27.4064 16.5153 27.4185 16.6335 27.4602 16.7415C27.5019 16.8496 27.5715 16.9432 27.6611 17.0117C27.7507 17.0802 27.8568 17.1209 27.9673 17.1292C28.0778 17.1375 28.1883 17.1131 28.2863 17.0586L32.5 14.7266L36.7138 17.0586C36.8288 17.1231 36.9624 17.1445 37.0905 17.1211C37.4133 17.0625 37.6304 16.7403 37.5747 16.4004L36.7695 11.461L40.178 7.9629C40.2707 7.8672 40.332 7.7422 40.3505 7.60548C40.4006 7.26368 40.1742 6.94728 39.8495 6.89649Z" fill="#FF9533"/>
<path d="M62.8495 6.89649L58.1385 6.17579L56.0325 1.68165C55.975 1.5586 55.8804 1.45899 55.7635 1.39844C55.4703 1.2461 55.1141 1.37305 54.9675 1.68165L52.8615 6.17579L48.1505 6.89649C48.0206 6.91603 47.9019 6.98048 47.8109 7.07814C47.701 7.19705 47.6405 7.35704 47.6425 7.52294C47.6446 7.68885 47.7092 7.84709 47.8221 7.9629L51.2306 11.461L50.4253 16.4004C50.4064 16.5153 50.4185 16.6335 50.4602 16.7415C50.5018 16.8496 50.5714 16.9432 50.6611 17.0117C50.7507 17.0802 50.8568 17.1209 50.9673 17.1292C51.0778 17.1375 51.1883 17.1131 51.2862 17.0586L55.5 14.7266L59.7138 17.0586C59.8288 17.1231 59.9624 17.1445 60.0904 17.1211C60.4133 17.0625 60.6304 16.7403 60.5747 16.4004L59.7694 11.461L63.1779 7.9629C63.2707 7.8672 63.3319 7.7422 63.3505 7.60548C63.4006 7.26368 63.1742 6.94728 62.8495 6.89649Z" fill="#FF9533"/>
<path d="M85.8495 6.89649L81.1385 6.17579L79.0325 1.68165C78.975 1.5586 78.8804 1.45899 78.7635 1.39844C78.4703 1.2461 78.1141 1.37305 77.9675 1.68165L75.8615 6.17579L71.1505 6.89649C71.0206 6.91603 70.9019 6.98048 70.8109 7.07814C70.701 7.19705 70.6405 7.35704 70.6425 7.52294C70.6446 7.68885 70.7092 7.84709 70.8221 7.9629L74.2306 11.461L73.4253 16.4004C73.4064 16.5153 73.4185 16.6335 73.4602 16.7415C73.5018 16.8496 73.5714 16.9432 73.6611 17.0117C73.7507 17.0802 73.8568 17.1209 73.9673 17.1292C74.0778 17.1375 74.1883 17.1131 74.2862 17.0586L78.5 14.7266L82.7138 17.0586C82.8288 17.1231 82.9624 17.1445 83.0904 17.1211C83.4133 17.0625 83.6304 16.7403 83.5747 16.4004L82.7694 11.461L86.1779 7.9629C86.2707 7.8672 86.3319 7.7422 86.3505 7.60548C86.4006 7.26368 86.1742 6.94728 85.8495 6.89649Z" fill="#FF9533"/>
<path d="M108.736 6.89649L103.777 6.17579L101.561 1.68165C101.5 1.5586 101.4 1.45899 101.277 1.39844C100.969 1.2461 100.594 1.37305 100.439 1.68165L98.2227 6.17579L93.2637 6.89649C93.127 6.91603 93.002 6.98048 92.9063 7.07814C92.7906 7.19705 92.7268 7.35704 92.729 7.52294C92.7312 7.68885 92.7992 7.84709 92.918 7.9629L96.5059 11.461L95.6582 16.4004C95.6383 16.5153 95.651 16.6335 95.6949 16.7415C95.7388 16.8496 95.812 16.9432 95.9064 17.0117C96.0007 17.0802 96.1124 17.1209 96.2287 17.1292C96.345 17.1375 96.4613 17.1131 96.5645 17.0586L101 14.7266L105.436 17.0586C105.557 17.1231 105.697 17.1445 105.832 17.1211C106.172 17.0625 106.4 16.7403 106.342 16.4004L105.494 11.461L109.082 7.9629C109.18 7.8672 109.244 7.7422 109.264 7.60548C109.316 7.26368 109.078 6.94728 108.736 6.89649Z" fill="#FF9533"/>
</svg>
