<svg width="65" height="60" viewBox="0 0 65 60" fill="none" xmlns="http://www.w3.org/2000/svg">
<path d="M62.7125 21.7676L61.4114 17.5463L62.8751 15.7092C68.2825 8.86919 58.2402 -1.84036 50.2715 2.26367C49.4177 2.69362 48.4014 2.7327 46.9378 2.38092C44.2545 1.71646 35.4726 0.309371 33.6837 0.113941C27.7478 -0.589608 29.3739 2.18548 31.9353 2.42C37.7086 3.00629 37.5866 2.69361 36.0417 4.25705C33.6429 6.71947 35.7165 16.3346 39.5382 20.5168C42.994 24.3082 51.3693 26.3406 53.9713 23.9955C59.1347 19.3052 57.7118 41.037 52.3858 47.6816C35.7978 68.4363 0.832899 48.4242 7.13469 21.7676L7.86663 18.6407L10.8752 20.5559C16.1199 23.9173 18.2746 22.2366 14.2496 17.9372C7.66323 10.9408 9.89947 2.02914 16.8111 7.69661C19.1285 9.61183 21.9746 9.88543 23.1536 8.36108C26.6501 3.74893 28.7234 5.39054 28.6828 10.3154C28.6828 12.9732 27.3818 14.7712 22.0558 19.5397C17.3803 23.7219 17.177 25.129 21.2427 25.129C23.9667 25.129 32.7891 15.0839 33.5616 11.1362C34.6593 5.58596 26.8532 1.052 22.2184 4.53065C21.1613 5.35146 20.5109 5.50781 20.1043 5.11695C19.6978 4.72609 19.7791 4.02252 21.0801 3.31897C22.3811 2.61543 24.3733 2.06824 23.926 0.895661C23.3162 -0.66778 18.8033 1.36468 18.1934 1.71646C17.5836 2.02915 15.3881 3.39715 13.5179 3.39715C7.09411 3.39715 4.65471 5.27327 5.18325 9.76817C5.46785 12.2697 5.3053 12.9732 3.84166 15.4747C-7.58289 34.9396 7.86659 59.5247 31.8134 59.9937C56.1668 60.5409 69.5429 43.9293 62.7125 21.7676ZM54.4998 17.7026C50.1089 22.393 49.4584 22.5884 45.84 20.5559C42.9534 18.9143 40.5952 14.6539 40.1073 10.159C39.6195 5.42962 42.1402 4.17888 46.4498 6.99307L48.5641 8.40016L50.6781 7.07125C56.7359 3.20173 64.7046 6.83673 54.4998 17.7026Z" fill="#FF9533"/>
<path d="M12.2577 30.4838C12.5423 31.3046 13.1521 34.0406 13.64 36.5812C17.2585 55.5379 48.8895 55.1862 50.5158 36.1904C50.719 33.8452 51.1662 31.7737 51.4915 31.5782C54.3374 29.8194 46.7347 27.4742 41.368 28.4904C39.7011 28.8031 33.318 28.8813 25.7151 28.6859C11.6479 28.295 11.5666 28.295 12.2577 30.4838ZM46.7348 31.7737V34.666C46.7348 45.4147 26.7721 51.3166 20.1451 42.4832C17.8683 39.4736 17.909 37.6366 17.5838 31.9691C36.2859 31.3828 36.7332 31.461 46.7348 31.7737Z" fill="#FF9533"/>
</svg>
