<svg width="343" height="274" viewBox="0 0 343 274" fill="none" xmlns="http://www.w3.org/2000/svg">
<path d="M162.087 71.0783C159.97 71.6353 150.167 72.5263 140.252 73.0834C112.847 74.5316 115.075 76.2026 96.1361 95.364C89.5633 102.048 90.7888 107.284 87.5581 120.096C79.7599 151.066 109.282 150.954 125.101 131.013C138.246 114.414 146.602 109.067 168.548 103.385C188.823 98.1493 194.394 93.9159 194.394 83.8897C194.394 72.9722 179.02 66.7336 162.087 71.0783ZM165.875 96.033C143.037 101.492 127.663 109.178 118.417 120.319C103.823 137.809 98.587 141.485 97.8071 134.467C97.3615 130.902 103.712 110.515 106.162 107.284L114.406 96.478C125.881 81.3272 125.101 81.8842 144.708 80.8816C154.066 80.436 163.981 79.5456 166.654 78.9886C184.033 75.3123 182.474 92.0225 165.875 96.033Z" fill="#FF9533"/>
<path d="M316.046 85.2271C309.362 76.5377 299.224 62.2783 293.543 53.7003C259.565 2.67767 234.833 -6.01242 172.113 11.2551C147.048 18.162 143.928 17.9397 104.157 4.45991C53.1348 -12.8076 -5.35186 22.3956 7.7937 69.9647C16.0375 99.9321 16.1488 99.487 7.90494 128.34C-3.56958 168.891 -2.78976 186.159 11.804 213.564C55.6969 295.891 160.304 292.771 188.935 208.439C197.847 182.259 201.189 175.575 209.544 167.331C224.25 152.849 229.486 152.515 247.422 165.66C272.821 184.265 295.659 189.055 317.605 180.366C351.361 166.997 350.915 130.68 316.046 85.2271ZM261.347 159.756C222.913 132.24 190.606 148.393 172.224 204.428C160.973 238.741 154.957 246.65 131.451 258.459C91.2346 278.623 40.546 248.656 21.4961 193.511C14.4777 173.013 15.9261 155.411 27.8463 118.648C33.6392 100.824 33.8619 96.5898 29.9628 81.996C24.0584 59.8268 23.7242 57.2652 25.5067 48.6871C33.3049 11.4785 64.7207 2.45487 105.828 15.8232C142.257 27.7434 151.169 27.8543 188.267 17.6053C229.486 6.13073 246.419 13.0382 272.599 52.0292C284.407 69.6309 290.98 78.766 302.343 93.2484C348.13 151.735 318.051 200.418 261.347 159.756Z" fill="#FF9533"/>
<path d="M242.854 69.2962C214.446 47.2384 220.239 34.3152 172.113 37.6573C149.387 39.217 159.413 43.8959 115.298 47.6836C83.2134 50.4687 56.2539 56.93 56.2539 89.4598C56.2539 98.7062 55.6968 103.497 53.9143 109.401C40.546 153.406 60.0414 202.868 90.5658 202.757C110.396 202.645 122.205 193.176 138.692 163.989C148.718 146.276 162.644 132.684 175.789 128.674C177.794 128.117 190.16 127.225 203.306 126.78C241.294 125.443 252.88 119.427 258.45 98.149C261.458 86.7859 258.673 81.5506 242.854 69.2962ZM197.179 122.213C159.302 122.213 146.824 130.344 127.329 167.219C92.7939 232.39 43.3311 186.047 69.0653 112.409C72.853 101.603 73.0757 100.489 72.2958 91.6878C70.402 68.6274 84.9957 58.7129 125.992 54.8138C149.164 52.5858 154.734 50.5805 168.771 46.4586C176.124 44.2305 188.824 43.6737 195.508 45.0106C201.746 46.236 214.446 62.946 232.382 76.8714C263.018 100.6 246.308 122.101 197.179 122.213Z" fill="#FF9533"/>
</svg>
