<svg width="92" height="70" viewBox="0 0 92 70" fill="none" xmlns="http://www.w3.org/2000/svg">
<path fill-rule="evenodd" clip-rule="evenodd" d="M50.5114 7.79742C48.7329 11.0711 49.4073 18.3417 52.4386 18.7613C53.7593 18.9234 54.0297 18.4471 54.8357 14.3271C56.7292 4.52514 51.9292 5.15883 50.5114 7.79742ZM66.4893 26.5731C64.2099 28.5964 66.918 30.7224 70.2795 29.5656C73.7075 28.3627 77.9554 26.0715 80.5163 24.3341C83.1453 22.7613 81.2488 20.1303 78.0302 20.8223C74.2345 21.6065 68.0611 25.1559 66.4893 26.5731ZM25.5315 0.750202C23.1883 0.469389 24.8838 12.2676 27.4115 13.7872C30.3665 15.5494 31.0073 14.9894 30.573 10.921C29.9043 4.49356 28.2215 1.06 25.5315 0.750202ZM47.5304 28.8251C45.7338 29.3587 43.471 30.2155 42.5194 30.6829C34.1317 35.0748 34.0346 35.1036 32.9095 32.3228C30.2707 25.9525 23.9126 19.0237 21.7957 26.3049C20.5416 30.7164 19.3279 39.3925 18.7258 42.1584C17.1014 49.4253 17.5315 51.0135 21.3577 52.0946C30.8802 54.7309 42.8195 61.4275 50.1987 68.2642C52.0161 69.9683 52.2824 69.7836 55.0029 65.491C60.4979 56.8105 70.3837 50.9176 71.9707 48.1231C73.7562 44.9794 66.7143 44.0879 55.3731 46.0044L54.2188 46.1888L53.5403 44.7536C52.1405 41.8167 50.2593 42.4282 50.0387 45.8727C49.8626 48.6705 50.3329 49.9036 53.3503 50.0633C55.072 50.1592 57.6552 49.9463 61.3801 49.4999C62.8507 49.3272 64.0119 49.2727 63.9578 49.368C63.7053 49.8126 57.1184 57.075 57.1004 57.1068L52.6956 54.0592C49.0927 51.8031 47.5112 53.5927 50.9837 56.3628C51.3444 56.6516 54.9625 59.3785 54.9625 59.3785C54.9625 59.3785 53.8 61.0701 52.7956 61.8436C51.7607 62.5997 50.8533 62.4204 49.8545 61.2652C41.9689 52.335 23.68 47.3658 23.6494 47.3485C23.0154 47.1144 25.9827 29.5228 26.6625 29.3209C26.7596 29.292 27.166 30.0688 27.5739 31.0564C32.2923 42.0096 33.2551 42.3045 43.8943 36.2935L48.8927 33.4626L49.0162 35.5906C49.3672 41.7956 54.6543 42.1524 54.2283 37.5008C54.066 35.9387 53.6915 33.5421 53.0463 29.7739C52.7675 28.0616 51.075 27.7723 47.5304 28.8251ZM87.5088 50.8999C86.0313 50.9428 77.0471 53.4 75.7624 54.0983C72.9753 55.6652 75.6598 57.9038 79.6025 57.2871C84.2014 56.5812 91.1408 54.8106 91.4654 54.239C92.1451 53.1131 89.5093 50.8601 87.5088 50.8999ZM3.2696 23.175C7.07642 26.8489 9.4778 28.5907 10.8096 28.5911C12.9808 28.6062 12.5965 27.506 9.26692 24.2711C8.95477 23.9679 5.9484 20.8746 3.4762 19.4705C1.70598 18.4652 -2.80827 17.2453 3.2696 23.175Z" fill="#FF9533"/>
</svg>
