<svg width="338" height="466" viewBox="0 0 338 466" fill="none" xmlns="http://www.w3.org/2000/svg">
<path d="M115.802 113.822C123.693 110.688 141.898 116.056 141.223 138.345C140.789 148.337 138.998 163.765 135.789 188.251C132.045 217.185 129.154 243.32 129.221 246.285C129.322 251.829 177.091 242.414 212.809 229.712C280.378 205.738 238.085 269.886 237.927 270.16L179.061 372.305C246.152 407.677 251.793 405.807 205.92 440.09L164.829 470.911C135.842 492.612 90.3664 479.573 144.92 438.588C185.818 407.656 181.509 410.294 188.986 404.36C185.275 403.319 169.133 398.772 156.004 395.595C127.178 388.859 137.78 370.462 145.945 355.415C153.951 340.642 166.959 318.511 196.234 267.712C90.5552 290.939 83.9389 300.66 98.4207 200.737C103.332 166.257 103.459 165.597 97.1544 170.377C-1.30779 245.315 -1.84632 245.37 -29.5861 184.393C-38.2603 165.127 -46.0756 149.65 -46.4242 149.815C-46.931 150.255 -55.346 168.816 -65.0564 191.385C-93.4281 257.335 -92.2563 256.181 -120.493 236.982C-131.057 229.797 -140.577 222.116 -142.005 220.195C-143.466 217.89 -146.365 235.24 -149.601 263.735C-170.947 348.731 -191.469 309.105 -187.574 273.309C-176.641 174.264 -182.945 148.685 -127.443 199.325C-118.05 207.665 -113.068 210.901 -112.151 208.869C-111.202 207.222 -101.746 183.775 -91.1204 156.978C-73.6006 112.938 -57.2088 51.0571 -11.9886 154.297C-2.35988 176.306 7.80302 193.869 7.80302 193.869C7.80302 193.869 103.536 118.824 115.802 113.822Z" fill="#FF9533"/>
<path d="M-5.51027 290.444C13.0518 274.074 29.4252 257.539 41.6135 271.148C48.4059 278.72 49.9766 295.357 46.6437 322.699C41.9598 362.064 40.6589 359.482 65.7678 358.589C108.409 357.193 116.664 369.266 94.6639 403.041C53.1013 467.242 19.1485 440.359 46.5058 405.648C63.1921 384.173 63.7673 386.699 42.112 385.558C10.2473 383.655 3.61311 375.808 7.79694 343.47C10.7536 320.301 11.8956 320.959 -9.58349 337.111C-38.0329 358.757 -42.3211 350.799 -58.8916 330.276L-64.3013 341.424C-79.0134 371.352 -93.9676 350.664 -88.0819 308.333C-82.6045 269.791 -65.233 267.365 -42.5926 301.994C-37.7976 309.512 -33.3532 315 -32.6561 314.67C-31.8328 313.682 -19.8595 303.024 -5.51027 290.444Z" fill="#FF9533"/>
</svg>
