<svg width="251" height="274" viewBox="0 0 251 274" fill="none" xmlns="http://www.w3.org/2000/svg">
<path d="M36.5334 172.376C22.8308 176.387 26.9524 184.853 21.7164 182.179C15.0322 178.726 4.11474 181.845 1.10685 188.307C-3.79488 198.667 8.12525 218.943 26.1725 229.972C28.7348 231.531 32.7452 234.094 34.9733 235.542C46.8934 243.229 55.1373 227.298 55.6944 194.991C56.0286 176.943 49.1219 168.588 36.5334 172.376ZM39.4294 223.288L37.9814 228.189C20.2683 210.364 10.465 201.341 10.3536 192.429C10.2422 185.187 12.8042 185.521 19.4884 193.877C23.3875 198.778 25.727 200.673 27.9551 201.007C37.87 202.344 31.5198 190.981 36.6443 181.511C38.204 178.504 40.0978 179.506 42.7715 184.63C45.3338 189.978 43.7741 208.694 39.4294 223.288Z" fill="#FF9533"/>
<path d="M239.287 112.775C234.274 114.111 233.159 114 231.043 112.551C228.369 110.769 221.128 110.546 216.895 112.218C204.306 117.231 199.739 143.521 207.426 166.359C213.219 183.626 220.349 181.621 239.287 157.67C262.905 127.702 262.905 106.536 239.287 112.775ZM245.191 130.487C240.401 141.85 221.351 163.017 220.014 158.227C218.343 151.765 217.786 134.832 219.012 127.814C221.462 114.668 226.81 111.549 226.81 123.358C226.81 129.374 231.377 131.267 235.165 126.811C236.056 125.697 238.396 122.912 240.29 120.684C246.194 113.665 249.425 120.349 245.191 130.487Z" fill="#FF9533"/>
<path d="M137.798 99.7405C134.902 101.3 133.342 101.523 131.894 100.744C117.968 93.391 105.492 107.316 111.062 123.692C125.21 164.688 136.35 164.577 157.294 123.246C166.318 105.31 154.286 90.8283 137.798 99.7405ZM150.832 111.995C149.83 115.894 145.485 121.353 140.918 128.148C132.785 140.625 134.011 140.291 130 131.267C126.324 123.135 120.754 118.568 119.751 115.003C118.414 109.99 120.642 99.4067 129.22 109.099C133.565 114.001 138.021 114.335 139.47 109.433C143.257 97.1785 152.392 106.09 150.832 111.995Z" fill="#FF9533"/>
<path d="M213.664 78.4626C253.101 42.9251 264.352 9.83769 236.167 12.0657L229.149 12.6228L226.364 8.38967C221.351 0.92566 212.773 -1.85985 203.861 1.25943C188.375 6.71818 182.694 22.6493 185.591 52.3939C189.378 90.4937 194.837 95.3959 213.664 78.4626ZM197.065 32.8983C197.845 11.2861 206.089 -0.188588 215.112 7.60963C219.903 11.7315 221.574 18.4159 218.566 21.201C206.534 32.4527 203.526 47.3807 213.33 47.3807C221.351 47.3807 229.038 37.3547 230.82 24.7661C232.269 13.6258 241.292 13.9594 241.292 25.2111C241.292 31.0041 238.507 35.7948 227.255 49.6088C220.348 58.0754 201.075 77.9054 200.407 77.1256C199.181 75.7887 196.731 44.2615 197.065 32.8983Z" fill="#FF9533"/>
<path d="M249.536 219.499C246.194 220.167 245.86 219.944 245.86 217.605C245.86 211.255 236.056 207.468 227.701 210.476C209.987 216.937 195.059 247.35 198.736 269.519C201.187 284.559 267.026 248.018 267.026 231.53C267.026 223.398 258.893 217.605 249.536 219.499ZM209.319 264.171C208.428 263.28 217.34 235.207 220.794 228.188C226.475 216.491 233.494 212.258 233.494 220.613C233.494 221.95 231.822 225.292 229.929 227.854C222.799 237.101 223.133 236.878 224.47 238.215C227.032 240.777 235.722 237.212 241.515 231.196C248.199 224.289 255.886 224.289 255.886 231.307C255.886 236.209 212.215 267.068 209.319 264.171Z" fill="#FF9533"/>
<path d="M116.855 223.621C121.422 221.838 132.674 191.759 132.786 181.288C132.786 168.365 121.534 162.014 109.725 168.364C108.054 169.255 106.606 170.482 106.606 170.927C106.606 171.484 103.264 171.818 99.2531 171.706C85.6619 171.483 82.7655 178.502 89.2268 196.215C96.3566 215.822 107.608 227.074 116.855 223.621ZM102.038 181.622C106.049 188.306 113.29 186.969 113.29 179.617C113.29 173.824 118.303 170.258 119.529 175.271C120.754 180.285 112.733 207.801 110.059 207.801C108.166 207.801 99.5871 188.862 99.0301 183.404C98.3617 176.719 98.9189 176.386 102.038 181.622Z" fill="#FF9533"/>
<path d="M80.4261 44.4851C73.8533 48.1614 73.9649 48.161 72.1824 43.4821C69.7315 36.6865 61.1534 34.4589 52.5754 38.358C36.6447 45.7106 38.0926 73.0041 56.1399 99.9637C59.5934 105.088 59.9276 119.681 77.8635 101.523C87.667 91.6078 102.595 75.1206 106.717 69.1048C120.309 49.1636 102.261 32.2308 80.4261 44.4851ZM101.704 55.1794C100.702 62.8662 73.1846 95.8413 65.6092 98.4036C63.6039 99.072 54.9147 71.2214 53.5779 60.1925C51.7954 44.5961 59.5939 34.9043 63.8272 47.6042C64.8298 50.7235 65.6092 55.1796 65.6092 57.6305C65.4978 65.7629 73.2963 66.0965 77.084 58.0754C84.3252 42.5904 103.598 40.4742 101.704 55.1794Z" fill="#FF9533"/>
</svg>
