<svg width="293" height="265" viewBox="0 0 293 265" fill="none" xmlns="http://www.w3.org/2000/svg">
<path d="M35.5733 70.8706C33.676 61.3644 29.5652 58.3798 27.2463 64.6804C24.4003 72.6391 26.6138 81.7031 31.4625 81.7031C35.995 81.7031 37.1544 78.6082 35.5733 70.8706Z" fill="#FF9533"/>
<path d="M248.81 253.368C241.537 250.162 212.34 239.661 201.166 236.234C187.885 232.145 188.307 232.476 187.886 225.181C185.988 183.287 183.986 174.776 179.875 179.197C178.821 180.303 178.926 201.526 180.085 217.222C181.561 236.676 182.404 237.561 204.856 244.525C219.191 248.946 224.778 251.378 230.364 253.589C193.472 253.589 120.004 253.699 120.004 253.257C120.004 253.036 128.436 248.725 138.661 243.53C161.428 232.034 159.215 235.792 158.477 209.926C157.318 172.786 157.423 173.007 142.139 166.817C131.388 162.506 119.161 155.1 112.625 149.021C107.461 144.267 106.828 143.936 105.563 146.036C101.663 152.447 83.744 154.105 74.0466 149.021C33.2543 127.245 44.9544 50.4214 87.2224 62.8016C93.2306 64.5702 94.8119 64.6807 96.393 63.4648C104.193 57.8274 161.64 54.4008 195.159 54.2903C198.11 54.2903 225.516 57.6063 206.332 50.0898C187.042 42.4627 126.75 42.0206 99.4497 53.5164C97.0253 54.5113 97.1308 44.4524 99.5552 41.91C104.193 37.2675 141.401 30.9669 178.715 32.9566C197.794 33.9514 215.186 38.2623 224.462 41.2468C227.413 42.2417 229.521 45.1156 229.521 48.4318V51.4162C229.521 60.0381 232.683 67.3336 236.373 67.3336C238.059 67.3336 239.219 63.907 238.376 61.5857C236.795 57.3853 253.976 46.3315 262.092 46.3315C291.29 46.3315 289.392 95.9627 272.527 124.371C257.032 150.457 246.492 154.658 218.349 145.815C202.959 140.951 186.726 139.735 141.612 145.704C128.753 147.473 132.652 152.668 149.201 152.337C189.15 151.452 210.97 152.226 208.967 154.437C206.648 157.09 196.107 163.059 189.045 165.601C177.872 169.691 183.774 178.866 193.261 174.223C200.323 170.686 212.235 162.948 217.399 157.974C221.827 153.774 222.248 153.553 224.462 154.99C249.443 171.681 276.321 153.442 289.181 110.885C302.989 65.1229 275.057 24.7768 242.697 43.8998L237.005 47.2159L235.846 43.5681C233.948 37.4885 229.416 33.0671 222.986 30.6353C191.996 19.3605 123.377 18.8078 93.7578 35.0568C89.7524 37.2675 87.2224 41.6889 87.2224 46.442C87.2224 46.6631 87.2224 56.3905 87.2224 56.0588L84.2712 55.285C42.4249 44.2313 18.7081 106.353 50.7517 143.162C63.6113 157.974 82.9009 163.169 101.558 156.869L107.988 154.658L111.466 158.306C116.631 163.833 130.017 171.57 140.242 174.997L149.412 177.981C150.572 187.93 150.677 186.493 150.045 229.934C142.983 233.25 104.193 251.157 96.2875 253.81C87.855 256.573 90.3846 262.874 96.709 263.095C105.247 263.426 132.758 263.648 164.696 263.648C210.126 263.648 251.024 264.974 250.919 264.974C255.346 265.527 257.243 257.126 248.81 253.368Z" fill="#FF9533"/>
<path d="M105.88 184.944C104.615 179.638 97.658 181.075 98.5013 186.492C99.3445 192.019 94.812 200.088 89.0147 196.551C83.1119 193.124 83.217 182.291 95.0225 182.181C96.2874 182.181 98.0795 181.628 98.9228 181.075C103.034 178.201 92.493 175.328 86.801 177.759C78.8955 181.186 77.3141 195.666 84.3764 199.535C94.7062 205.062 108.409 195.777 105.88 184.944Z" fill="#FF9533"/>
<path d="M92.1767 75.845C76.7873 64.1281 54.9682 72.5288 55.8114 98.9472C56.7601 125.808 73.8357 142.609 97.236 139.625C105.669 138.52 105.88 138.299 103.244 129.566C90.9118 87.1198 98.0795 80.3771 92.1767 75.845ZM88.4875 133.103C74.7846 128.35 68.144 117.739 67.4062 99.721C66.6683 79.6033 70.6735 73.4132 80.7925 78.8295L85.8523 81.4824L86.0628 90.2149C86.2736 99.9421 89.3306 117.739 92.5982 127.576C95.128 135.314 95.1281 135.424 88.4875 133.103Z" fill="#FF9533"/>
<path d="M29.776 40.3629C34.8355 44.3422 37.6815 40.4734 37.6815 29.7513C37.6815 14.7183 33.7813 6.87011 29.1434 12.7286C26.7191 15.8236 27.2462 38.3732 29.776 40.3629Z" fill="#FF9533"/>
<path d="M247.756 24.6644C255.45 23.3379 260.194 12.0631 255.029 7.19945C251.867 4.21494 250.496 4.87825 251.234 9.07866C252.077 13.7212 247.756 20.685 242.696 18.0321C237.532 15.3792 237.11 4.43604 249.232 4.32551C251.762 4.32551 252.71 2.77796 250.918 1.67259C245.226 -1.97514 235.634 0.456789 232.472 7.86278C228.888 16.0425 235.739 26.7646 247.756 24.6644Z" fill="#FF9533"/>
<path d="M34.6246 51.3035C34.6246 54.6196 46.1136 54.2881 59.0786 50.6403C70.9896 47.3242 59.606 43.3449 46.7464 46.3294C37.8922 48.4296 34.6246 49.756 34.6246 51.3035Z" fill="#FF9533"/>
<path d="M3.52946 48.4303C-0.581394 49.3146 -1.31924 52.6306 2.4754 53.6255C7.00788 54.8414 25.8756 53.515 27.773 51.8569C31.9892 48.0986 15.1242 45.7774 3.52946 48.4303Z" fill="#FF9533"/>
<path d="M258.192 193.678C262.829 195.004 264.305 192.794 264.305 184.724C264.305 174.223 263.673 172.344 260.089 172.344C257.981 172.344 257.031 173.007 256.504 174.776C254.923 181.519 255.873 193.015 258.192 193.678Z" fill="#FF9533"/>
<path d="M235.003 138.186C259.351 151.229 289.076 94.8555 271.895 68.1055C267.257 60.9206 258.297 57.4939 251.235 60.1468C244.91 62.5786 233.105 75.5115 234.37 78.8276C235.74 82.6964 232.683 107.346 229.626 117.073C225.094 131.222 225.621 133.101 235.003 138.186ZM235.424 125.695C238.164 117.405 241.116 98.061 241.116 88.2232C241.116 71.8637 256.822 58.2677 265.254 67.2212C273.265 75.622 265.148 110.883 251.762 126.248C243.856 135.312 232.367 134.98 235.424 125.695Z" fill="#FF9533"/>
<path d="M254.924 219.32C251.34 229.047 255.03 239.548 261.566 238.111C266.52 237.117 267.468 229.49 263.779 220.094C261.987 215.341 256.505 214.899 254.924 219.32Z" fill="#FF9533"/>
<path d="M288.444 205.061C283.911 204.066 267.784 203.735 265.571 204.619C257.56 207.714 275.9 212.578 286.546 210.146C290.867 209.151 292.133 205.835 288.444 205.061Z" fill="#FF9533"/>
<path d="M235.107 203.955C233.21 204.729 233.421 207.271 235.423 208.045C240.483 210.145 255.873 208.487 255.873 205.945C255.978 203.513 239.956 201.965 235.107 203.955Z" fill="#FF9533"/>
<path d="M197.056 70.8715C195.37 67.6659 170.283 65.6761 150.572 67.3342C134.128 68.6606 118.528 71.9767 110.939 75.1823C103.771 78.2773 105.458 83.0305 112.625 81.704C122.639 79.8249 161.006 76.0667 172.179 76.0667C193.577 75.9561 199.059 74.8508 197.056 70.8715Z" fill="#FF9533"/>
</svg>
